<?xml version="1.0" encoding="UTF-8"?>
<svg id="Layer_2" data-name="Layer 2" xmlns="http://www.w3.org/2000/svg" viewBox="0 0 138.3 138.72">

  <g id="Layer_1-2" data-name="Layer 1">
    <g>
      <g>
        <path style={{ fil: "hsl(var(--foreground))" }} d="m64.81,114.96h9v-12.64h-9v12.64Zm0-70.19v15.28h9v-15.28h-9Zm-1.8,93.95h12.6l-1.8-18.63h-9l-1.8,18.63Zm1.8-60.36h9v-12.64h-9v12.64Zm0,18.3h9v-12.64h-9v12.64Z"/>
        <circle style={{ fil: "hsl(var(--foreground))" }} cx="60.88" cy="44.52" r="9.17"/>
        <circle style={{ fil: "hsl(var(--foreground))" }} cx="77.43" cy="44.52" r="9.17"/>
        <path style={{ fil: "hsl(var(--foreground))" }} d="m138.02,40.32c-.51-.48-12.08-11.26-31.86-12.26l10.14-3.79c-1.08-1.59-2.58-2.69-4.09-3.86-.15-.12-.02-.37.15-.36,2.23.11,4.4,1.12,6.52,1.72.68.19,1.35.47,1.98.8l12.53-4.68c.34-.13.58-.45.59-.82s-.21-.7-.55-.85c-.67-.29-16.72-6.93-36.94.62-.76.29-1.53.59-2.28.91l8.7-8.46c-1.4-.43-2.84-.62-4.27-.93-.25-.05-.27-.48,0-.52,2.01-.29,4.22-.63,6.36-.58l5.88-5.71c.26-.26.34-.65.2-.99-.14-.34-.52-.51-.84-.56-.62,0-15.27.32-28.32,13,0,0,0,0,0,0l-12.93,12.73-12.62-12.73C43.32.32,28.67,0,28.06,0c-.36.03-.7.22-.84.56-.14.34-.06.73.2.99l3.65,3.55c3.29.14,6.53.46,9.29,2.57.27.21.13.72-.25.6-1.66-.56-3.88-.56-6.05-.26l10.02,9.74c-.76-.32-1.52-.63-2.28-.91-20.23-7.55-36.27-.91-36.94-.62-.34.14-.56.48-.55.85s.24.69.59.82l7.13,2.66c2.87-.96,5.6-1.54,6.72-1.64.37-.03.36.47.08.59-1.2.48-2.33,1.48-3.4,2.33l16.71,6.24C12.36,29.06.79,39.84.28,40.32c-.27.25-.35.64-.22.99.14.34.47.57.84.57h8.96c.1-.06.2-.12.29-.18,3.73-2.31,7.69-3.99,11.71-5.72.44-.19.83.41.39.66-2.28,1.31-4.21,3.28-6.11,5.23h9.4c2.75-2,5.68-3.68,8.48-5.61.38-.26.79.31.48.62-1.51,1.53-2.86,3.26-4.21,4.98h75.26c-.64-2.06-1.3-4.09-2.66-5.82-.21-.27.12-.62.38-.38,2.16,1.94,4.75,3.96,7.1,6.21h9.88c-.89-2.27-1.97-4.4-3.68-5.58-.35-.24-.05-.74.33-.56,2.83,1.34,5.33,3.78,7.51,6.15h13.01c.37,0,.7-.22.84-.57.14-.34.05-.73-.22-.99Z"/>
      </g>
      <path style={{ fil: "hsl(var(--foreground))" }} d="m64.81,114.96h9v-12.64h-9v12.64Zm0-70.19v15.28h9v-15.28h-9Zm-1.8,93.95h12.6l-1.8-18.63h-9l-1.8,18.63Zm1.8-60.36h9v-12.64h-9v12.64Zm0,18.3h9v-12.64h-9v12.64Z"/>
      <circle style={{ fil: "hsl(var(--foreground))" }} cx="60.88" cy="44.52" r="9.17"/>
      <circle style={{ fil: "hsl(var(--foreground))" }} cx="77.43" cy="44.52" r="9.17"/>
      <path style={{ fil: "hsl(var(--foreground))" }} d="m138.02,40.32c-.51-.48-12.08-11.26-31.86-12.26l10.14-3.79c-1.08-1.59-2.58-2.69-4.09-3.86-.15-.12-.02-.37.15-.36,2.23.11,4.4,1.12,6.52,1.72.68.19,1.35.47,1.98.8l12.53-4.68c.34-.13.58-.45.59-.82s-.21-.7-.55-.85c-.67-.29-16.72-6.93-36.94.62-.76.29-1.53.59-2.28.91l8.7-8.46c-1.4-.43-2.84-.62-4.27-.93-.25-.05-.27-.48,0-.52,2.01-.29,4.22-.63,6.36-.58l5.88-5.71c.26-.26.34-.65.2-.99-.14-.34-.52-.51-.84-.56-.62,0-15.27.32-28.32,13,0,0,0,0,0,0l-12.93,12.73-12.62-12.73C43.32.32,28.67,0,28.06,0c-.36.03-.7.22-.84.56-.14.34-.06.73.2.99l3.65,3.55c3.29.14,6.53.46,9.29,2.57.27.21.13.72-.25.6-1.66-.56-3.88-.56-6.05-.26l10.02,9.74c-.76-.32-1.52-.63-2.28-.91-20.23-7.55-36.27-.91-36.94-.62-.34.14-.56.48-.55.85s.24.69.59.82l7.13,2.66c2.87-.96,5.6-1.54,6.72-1.64.37-.03.36.47.08.59-1.2.48-2.33,1.48-3.4,2.33l16.71,6.24C12.36,29.06.79,39.84.28,40.32c-.27.25-.35.64-.22.99.14.34.47.57.84.57h8.96c.1-.06.2-.12.29-.18,3.73-2.31,7.69-3.99,11.71-5.72.44-.19.83.41.39.66-2.28,1.31-4.21,3.28-6.11,5.23h9.4c2.75-2,5.68-3.68,8.48-5.61.38-.26.79.31.48.62-1.51,1.53-2.86,3.26-4.21,4.98h75.26c-.64-2.06-1.3-4.09-2.66-5.82-.21-.27.12-.62.38-.38,2.16,1.94,4.75,3.96,7.1,6.21h9.88c-.89-2.27-1.97-4.4-3.68-5.58-.35-.24-.05-.74.33-.56,2.83,1.34,5.33,3.78,7.51,6.15h13.01c.37,0,.7-.22.84-.57.14-.34.05-.73-.22-.99Z"/>
    </g>
  </g>
</svg>